<svg width="1346" height="946" xmlns="http://www.w3.org/2000/svg" xmlns:xlink="http://www.w3.org/1999/xlink" xml:space="preserve" overflow="hidden"><g transform="translate(-1060 -859)"><rect x="1140" y="866" width="1259" height="803" stroke="#000000" stroke-width="13.75" stroke-miterlimit="8" fill="#275317"/><rect x="1339" y="981" width="224" height="223" stroke="#000000" stroke-width="13.75" stroke-miterlimit="8" fill="#BFBFBF"/><rect x="1067" y="981" width="72.9999" height="236" stroke="#000000" stroke-width="13.75" stroke-miterlimit="8" fill="#275317"/><rect x="1067.5" y="981.5" width="73.0002" height="35.0001" stroke="#275317" stroke-width="1.14583" stroke-miterlimit="8" fill="#FFC000"/><rect x="1067.5" y="1020.5" width="73.0002" height="35.0001" stroke="#275317" stroke-width="1.14583" stroke-miterlimit="8" fill="#FFC000"/><rect x="1067.5" y="1058.5" width="73.0002" height="35.0001" stroke="#275317" stroke-width="1.14583" stroke-miterlimit="8" fill="#FFC000"/><rect x="1067.5" y="1097.5" width="73.0002" height="35.0001" stroke="#275317" stroke-width="1.14583" stroke-miterlimit="8" fill="#FFC000"/><rect x="1067.5" y="1138.5" width="73.0002" height="35.0001" stroke="#275317" stroke-width="1.14583" stroke-miterlimit="8" fill="#FFC000"/><rect x="1067.5" y="1178.5" width="73.0002" height="34" stroke="#275317" stroke-width="1.14583" stroke-miterlimit="8" fill="#FFC000"/><rect x="1285" y="1271" width="145" height="141" stroke="#000000" stroke-width="13.75" stroke-miterlimit="8" fill="#3A3A3A"/><rect x="1802" y="930" width="225" height="148" stroke="#000000" stroke-width="13.75" stroke-miterlimit="8" fill="#3A3A3A"/><rect x="2086" y="934" width="225" height="147" stroke="#000000" stroke-width="13.75" stroke-miterlimit="8" fill="#3A3A3A"/><rect x="1802" y="1110" width="225" height="147" stroke="#000000" stroke-width="13.75" stroke-miterlimit="8" fill="#3A3A3A"/><rect x="2086" y="1113" width="225" height="147" stroke="#000000" stroke-width="13.75" stroke-miterlimit="8" fill="#3A3A3A"/><rect x="1802" y="1289" width="225" height="147" stroke="#000000" stroke-width="13.75" stroke-miterlimit="8" fill="#3A3A3A"/><rect x="2086" y="1290" width="225" height="147" stroke="#000000" stroke-width="13.75" stroke-miterlimit="8" fill="#3A3A3A"/><rect x="1802" y="1464" width="225" height="147" stroke="#000000" stroke-width="13.75" stroke-miterlimit="8" fill="#3A3A3A"/><rect x="2086" y="1465" width="225" height="147" stroke="#000000" stroke-width="13.75" stroke-miterlimit="8" fill="#3A3A3A"/><rect x="1490" y="1271" width="145" height="141" stroke="#000000" stroke-width="13.75" stroke-miterlimit="8" fill="#3A3A3A"/><rect x="1269" y="1522" width="404" height="147" stroke="#000000" stroke-width="13.75" stroke-miterlimit="8" fill="#FFFFFF"/><rect x="1283" y="1628" width="371" height="148" stroke="#FFFFFF" stroke-width="13.75" stroke-miterlimit="8" fill="#FFFFFF"/><rect x="1313" y="1651" width="346" height="147" stroke="#FFFFFF" stroke-width="13.75" stroke-miterlimit="8" fill="#FFFFFF"/><path d="M1288.5 1559.5C1288.5 1548.45 1297.45 1539.5 1308.5 1539.5L1615.5 1539.5C1626.55 1539.5 1635.5 1548.45 1635.5 1559.5L1635.5 1639.5C1635.5 1650.55 1626.55 1659.5 1615.5 1659.5L1308.5 1659.5C1297.45 1659.5 1288.5 1650.55 1288.5 1639.5Z" stroke="#622C0F" stroke-width="6.875" stroke-miterlimit="8" fill="#E97132" fill-rule="evenodd"/><path d="M1639 1577 1730.28 1577" stroke="#7F7F7F" stroke-width="13.75" stroke-miterlimit="8" fill="none" fill-rule="evenodd"/><path d="M1641 1625 1732.28 1625" stroke="#7F7F7F" stroke-width="13.75" stroke-miterlimit="8" fill="none" fill-rule="evenodd"/></g></svg>