<svg width="1346" height="817" xmlns="http://www.w3.org/2000/svg" xmlns:xlink="http://www.w3.org/1999/xlink" xml:space="preserve" overflow="hidden"><g transform="translate(-1060 -859)"><rect x="1140" y="866" width="1259" height="803" stroke="#000000" stroke-width="13.75" stroke-miterlimit="8" fill="#8ED973"/><rect x="1339" y="981" width="224" height="223" stroke="#000000" stroke-width="13.75" stroke-miterlimit="8" fill="#BFBFBF"/><rect x="1067" y="981" width="72.9999" height="236" stroke="#000000" stroke-width="13.75" stroke-miterlimit="8" fill="#275317"/><rect x="1067.5" y="981.5" width="73.0002" height="35.0001" stroke="#275317" stroke-width="1.14583" stroke-miterlimit="8" fill="#FFC000"/><rect x="1067.5" y="1020.5" width="73.0002" height="35.0001" stroke="#275317" stroke-width="1.14583" stroke-miterlimit="8" fill="#FFC000"/><rect x="1067.5" y="1058.5" width="73.0002" height="35.0001" stroke="#275317" stroke-width="1.14583" stroke-miterlimit="8" fill="#FFC000"/><rect x="1067.5" y="1097.5" width="73.0002" height="35.0001" stroke="#275317" stroke-width="1.14583" stroke-miterlimit="8" fill="#FFC000"/><rect x="1067.5" y="1138.5" width="73.0002" height="35.0001" stroke="#275317" stroke-width="1.14583" stroke-miterlimit="8" fill="#FFC000"/><rect x="1067.5" y="1178.5" width="73.0002" height="34" stroke="#275317" stroke-width="1.14583" stroke-miterlimit="8" fill="#FFC000"/><rect x="1285" y="1271" width="145" height="141" stroke="#000000" stroke-width="13.75" stroke-miterlimit="8" fill="#3A3A3A"/><rect x="1802" y="930" width="225" height="148" stroke="#000000" stroke-width="13.75" stroke-miterlimit="8" fill="#3A3A3A"/><rect x="2086" y="934" width="225" height="147" stroke="#000000" stroke-width="13.75" stroke-miterlimit="8" fill="#3A3A3A"/><rect x="1802" y="1110" width="225" height="147" stroke="#000000" stroke-width="13.75" stroke-miterlimit="8" fill="#3A3A3A"/><rect x="2086" y="1113" width="225" height="147" stroke="#000000" stroke-width="13.75" stroke-miterlimit="8" fill="#3A3A3A"/><rect x="1802" y="1289" width="225" height="147" stroke="#000000" stroke-width="13.75" stroke-miterlimit="8" fill="#3A3A3A"/><rect x="2086" y="1290" width="225" height="147" stroke="#000000" stroke-width="13.75" stroke-miterlimit="8" fill="#3A3A3A"/><rect x="1802" y="1464" width="225" height="147" stroke="#000000" stroke-width="13.75" stroke-miterlimit="8" fill="#3A3A3A"/><rect x="2086" y="1465" width="225" height="147" stroke="#000000" stroke-width="13.75" stroke-miterlimit="8" fill="#3A3A3A"/><rect x="1490" y="1271" width="145" height="141" stroke="#000000" stroke-width="13.75" stroke-miterlimit="8" fill="#3A3A3A"/><path d="M1285.5 1509.5C1285.5 1498.45 1294.45 1489.5 1305.5 1489.5L1611.5 1489.5C1622.55 1489.5 1631.5 1498.45 1631.5 1509.5L1631.5 1589.5C1631.5 1600.55 1622.55 1609.5 1611.5 1609.5L1305.5 1609.5C1294.45 1609.5 1285.5 1600.55 1285.5 1589.5Z" stroke="#622C0F" stroke-width="6.875" stroke-miterlimit="8" fill="#E97132" fill-rule="evenodd"/><path d="M1631 1528 1722.28 1528" stroke="#7F7F7F" stroke-width="13.75" stroke-miterlimit="8" fill="none" fill-rule="evenodd"/><path d="M1634 1572 1725.28 1572" stroke="#7F7F7F" stroke-width="13.75" stroke-miterlimit="8" fill="none" fill-rule="evenodd"/></g></svg>